<svg xmlns="http://www.w3.org/2000/svg" viewBox="0 0 1600 1600">
  <path d="M1515.12 851.66c0-28.3-21.85-51.8-50.08-53.84l-361.21-26.17c-19.49 0-29.11-23.69-15.13-37.28l217.34-281.82c18.06-23.42 16.16-56.55-4.45-77.75-22.89-23.54-60.53-24.08-84.07-1.19L783.48 795.54l-433.93 421.82c-23.61 22.95-24.14 60.69-1.19 84.3 20.74 21.34 54.05 24.11 78.03 6.5l294.66-216.4c13.76-13.38 36.84-3.63 36.84 15.57l25.95 366.99c2.17 30.73 27.74 54.55 58.54 54.55 30.77 0 56.31-23.76 58.54-54.45l25.86-356.84c0-19.49 23.69-29.11 37.28-15.13l273.87 229.36c22.19 19.4 55.55 18.51 76.68-2.03 21.21-20.62 22.96-54.11 4.01-76.83l-240.61-275.58c-13.38-13.76-3.63-36.84 15.57-36.84l372.63-35.13c27.73-2.61 48.91-25.88 48.91-53.74z"/>
  <path d="M710.49 71.13c-27.01 0-49.83 20.04-53.31 46.82l-43.57 334.43c0 19.5-23.71 29.11-37.29 15.12L317.36 252.06c-23.15-19.26-57.34-16.96-77.7 5.23l-.91.99c-20.14 21.94-20.5 55.22-1.01 77.39 70.54 80.25 224.87 257.16 224.87 257.16 13.37 13.77 3.61 36.83-15.58 36.83l-308.72 25.5c-30.2 2.49-53.43 27.73-53.43 58.03 0 31.07 24.34 56.67 55.37 58.19 150.84 7.39 557.8 27.17 557.8 27.17 46.64 0 84.44-37.81 84.44-84.44l-18.26-590.87c-.89-29.04-24.69-52.11-53.74-52.11z" style="fill:#0dc28b"/>
</svg>
