<svg xmlns="http://www.w3.org/2000/svg" viewBox="1880.20947265625 1265.81005859375 6419.06005859375 4540.8203125">
  <style>.st0{fill:#0066b2}.st1{fill:#00aeef}</style>
  <path d="m2877.75 2892.31 1626.5 1626.5 1626.5-1626.5-1626.5-1626.5-1626.5 1626.5zm3147.69 0L4504.25 4413.5 2983.07 2892.31l1521.19-1521.19 1521.18 1521.19z" class="st0"></path>
  <path d="m4732.32 2653.33 1127.12-1123.5 1362.49 1362.49-1362.5 1362.48-543.04-546.67-47.16 47.16 590.21 593.83 1456.81-1456.81L5859.43 1435.5 4685.15 2606.16c-13.28 13.28-12.98 34.9.66 47.8 13.12 12.42 33.74 12.14 46.51-.63zM4504.25 2754.36c-69.86 0-126.48 56.63-126.48 126.48s56.63 126.48 126.48 126.48c69.86 0 126.48-56.63 126.48-126.48s-56.62-126.48-126.48-126.48zm0 202.38c-41.91 0-75.89-33.98-75.89-75.89s33.98-75.89 75.89-75.89 75.89 33.98 75.89 75.89-33.97 75.89-75.89 75.89z" class="st1"></path>
</svg>
