<svg xmlns="http://www.w3.org/2000/svg" viewBox="0 0 44 28.01799964904785">
  <g fill="none" fill-rule="nonzero">
    <path fill="#57C1FF" d="M35.936 0h-6.384l8.064 13.997-8.064 14.021h6.384L44 13.997zM8.064 0h6.384L6.384 13.997l8.064 14.021H8.064L0 13.997z"></path>
    <path fill="#003E54" d="M12.048 28.018 3.984 13.997 12.048 0h19.904l8.064 13.997-8.064 14.021z"></path>
    <path fill="#FFF" d="M20.208 22.51H15.12V5.507h5.304c4.848 0 8.448 2.285 8.448 8.514 0 5.964-4.32 8.49-8.664 8.49Zm.12-13.708h-1.8v10.39h1.68c3.552 0 5.184-2.093 5.184-5.195 0-3.463-1.488-5.195-5.064-5.195Z"></path>
  </g>
</svg>
